<svg width="14" height="14" viewBox="0 0 14 14" fill="none" xmlns="http://www.w3.org/2000/svg">
<circle cx="10.4932" cy="1.99921" r="1.41331" transform="rotate(45 10.4932 1.99921)" fill="white"/>
<circle cx="11.9922" cy="3.49823" r="1.41331" transform="rotate(45 11.9922 3.49823)" fill="white"/>
<circle cx="1.99854" cy="10.4938" r="1.41331" transform="rotate(45 1.99854 10.4938)" fill="white"/>
<circle cx="3.49756" cy="11.9929" r="1.41331" transform="rotate(45 3.49756 11.9929)" fill="white"/>
<rect x="10.165" y="2.67041" width="1.63428" height="10.5998" transform="rotate(45 10.165 2.67041)" fill="white"/>
<circle cx="1.99872" cy="3.49805" r="1.41331" transform="rotate(-45 1.99872 3.49805)" fill="white"/>
<circle cx="3.49774" cy="1.99902" r="1.41331" transform="rotate(-45 3.49774 1.99902)" fill="white"/>
<circle cx="10.4934" cy="11.9927" r="1.41331" transform="rotate(-45 10.4934 11.9927)" fill="white"/>
<circle cx="11.9924" cy="10.4937" r="1.41331" transform="rotate(-45 11.9924 10.4937)" fill="white"/>
<rect x="2.66992" y="3.82617" width="1.63428" height="10.5998" transform="rotate(-45 2.66992 3.82617)" fill="white"/>
</svg>
