<svg width="20" height="20" viewBox="0 0 20 20" fill="none" xmlns="http://www.w3.org/2000/svg">
<circle cx="15" cy="2.85752" r="2.02023" transform="rotate(45 15 2.85752)" fill="white"/>
<circle cx="17.1426" cy="5.0001" r="2.02023" transform="rotate(45 17.1426 5.0001)" fill="white"/>
<circle cx="2.85742" cy="15.0003" r="2.02023" transform="rotate(45 2.85742 15.0003)" fill="white"/>
<circle cx="5.00049" cy="17.1434" r="2.02023" transform="rotate(45 5.00049 17.1434)" fill="white"/>
<rect x="14.5308" y="3.81738" width="2.33608" height="15.1517" transform="rotate(45 14.5308 3.81738)" fill="white"/>
<circle cx="2.85801" cy="5.00049" r="2.02023" transform="rotate(-45 2.85801 5.00049)" fill="white"/>
<circle cx="4.99961" cy="2.85791" r="2.02023" transform="rotate(-45 4.99961 2.85791)" fill="white"/>
<circle cx="14.9996" cy="17.1433" r="2.02023" transform="rotate(-45 14.9996 17.1433)" fill="white"/>
<circle cx="17.1427" cy="15.0007" r="2.02023" transform="rotate(-45 17.1427 15.0007)" fill="white"/>
<rect x="3.81689" y="5.46948" width="2.33608" height="15.1517" transform="rotate(-45 3.81689 5.46948)" fill="white"/>
</svg>
