<svg width="26" height="30" viewBox="0 0 26 30" fill="none" xmlns="http://www.w3.org/2000/svg">
<path d="M7.27976 29.4291C6.9511 29.2894 6.70004 28.9504 6.60983 28.5243C6.56388 28.3074 6.42317 27.5208 6.29713 26.7764L6.06796 25.4229L5.06068 25.3674C3.5343 25.2833 2.73914 24.8493 2.08367 23.7426C1.8376 23.3271 1.80857 23.1746 1.80857 22.2974C1.80857 21.4337 1.84189 21.2521 2.08783 20.7755L2.36708 20.2342L1.83686 19.3819C-0.446254 15.7115 -0.615265 10.7379 1.40958 6.80052C2.32801 5.01458 3.9402 3.19354 5.5764 2.09387C6.86322 1.22903 8.83734 0.444953 10.459 0.15461C11.9529 -0.112822 14.5424 -0.0228462 15.8994 0.343659C17.7946 0.855484 19.4774 1.71877 20.9086 2.91325C21.8935 3.7354 23.2713 5.3162 23.8253 6.26015C24.3872 7.21749 25.0106 8.89842 25.2937 10.2195C25.4803 11.09 25.5424 13.3535 25.4075 14.3649C25.1625 16.202 24.473 18.1564 23.5865 19.5268L23.1084 20.266L23.3993 20.843C23.6462 21.3327 23.6901 21.5449 23.6898 22.2458C23.6894 22.9388 23.6453 23.1557 23.4155 23.5943C23.1037 24.1895 22.4536 24.8204 21.9013 25.0639C21.6759 25.1632 21.0944 25.2521 20.4478 25.2861L19.37 25.3427L19.089 26.9622C18.7507 28.9118 18.7509 28.9111 18.4187 29.2233L18.1542 29.4718L12.8203 29.4943C9.88662 29.5067 7.39341 29.4774 7.27976 29.4291ZM16.9841 26.7103C17.0931 25.7406 17.427 23.9747 17.5419 23.7599C17.7734 23.3274 17.9508 23.2795 19.52 23.2264C20.9563 23.1778 21.0605 23.1602 21.3111 22.9245C21.6688 22.5881 21.6898 21.868 21.3497 21.5995C21.2245 21.5007 20.9631 21.2676 20.7687 21.0815C20.4533 20.7795 20.4212 20.6991 20.4703 20.3334C20.5068 20.0607 20.662 19.7596 20.9342 19.433C22.6689 17.3522 23.5443 14.4271 23.2518 11.6896C22.9815 9.16046 22.1477 7.29042 20.4665 5.44313C19.1137 3.95661 17.4262 2.94164 15.412 2.40328C14.5408 2.17041 14.1838 2.13227 12.8027 2.12464C10.62 2.11255 9.63942 2.34212 7.70107 3.31886C5.43599 4.46029 3.47104 6.74898 2.69137 9.15412C1.93369 11.4917 1.90441 13.5961 2.59711 15.9279C3.01071 17.3201 3.3935 18.0154 4.64892 19.6543C4.83879 19.9022 4.95704 20.1798 4.95681 20.3769C4.9559 20.7674 4.63204 21.3263 4.3549 21.4143C4.08416 21.5002 3.82479 22.0712 3.89424 22.4285C4.00414 22.994 4.33303 23.1229 5.66791 23.1236C7.12482 23.1247 7.58695 23.2355 7.83628 23.6453C7.93914 23.8145 8.14734 24.6676 8.30711 25.5746C8.46466 26.4689 8.61427 27.2354 8.63958 27.278C8.6649 27.3206 10.5364 27.3554 12.7986 27.3554H16.9115L16.9841 26.7103ZM10.2826 23.5281C9.95304 23.1364 9.9531 23.1024 10.2862 21.3202C10.5702 19.8006 10.719 19.4856 11.2114 19.3622C11.5933 19.2663 12.1279 19.5402 12.2811 19.9102C12.3973 20.1907 12.3765 20.43 12.1206 21.7553C11.8701 23.0531 11.7855 23.3199 11.5483 23.5619C11.1509 23.9673 10.6407 23.9536 10.2826 23.5281ZM13.9947 23.6811C13.7257 23.4121 13.5498 22.9979 13.4721 22.4507C13.4319 22.1676 13.3352 21.6572 13.2572 21.3166C13.0358 20.35 13.0665 19.8987 13.3732 19.6106C13.7322 19.2734 14.2716 19.2805 14.6182 19.6271C14.8326 19.8415 14.9342 20.1566 15.1821 21.3768C15.3484 22.1953 15.4582 22.9922 15.426 23.1476C15.3052 23.7309 14.3868 24.0732 13.9947 23.6811ZM7.40543 18.3707C6.80935 18.2218 6.41496 17.9853 5.81249 17.4155C5.34911 16.9773 5.22802 16.7822 5.04473 16.1788C4.54425 14.5311 5.22303 12.9534 6.76471 12.1808C7.47797 11.8234 8.79595 11.819 9.52354 12.1717C10.1634 12.4818 10.7725 13.101 11.0899 13.764C11.7053 15.0493 11.4637 16.427 10.4444 17.4453C10.0428 17.8464 9.69987 18.0832 9.34612 18.2035C8.68809 18.4273 7.90276 18.4949 7.40543 18.3707ZM16.5705 18.3857C15.9178 18.2096 15.4867 17.9622 14.993 17.4804C13.7383 16.2558 13.7055 14.1098 14.9226 12.8751C15.6053 12.1827 16.1876 11.9325 17.2223 11.887C18.015 11.8522 18.131 11.874 18.7378 12.1728C20.2576 12.921 20.9516 14.6351 20.4008 16.281C20.1622 16.9943 19.4524 17.774 18.7311 18.1153C18.123 18.403 17.1064 18.5303 16.5705 18.3857Z" fill="#C7C7C7"/>
</svg>
